<svg xmlns="http://www.w3.org/2000/svg" width="836" height="608" viewBox="0 0 836 608" xmlns:xlink="http://www.w3.org/1999/xlink" role="img" artist="Katerina Limpitsouni"><line x1="836" y1="607.25" x2="0" y2="607.25" fill="#fff" stroke="#06060f" stroke-miterlimit="10" stroke-width="1.5"/><polygon points="600 606.56 583.9 606.56 554.55 347.11 569.7 347.11 600 606.56" fill="#fff" stroke="#06060f" stroke-miterlimit="10" stroke-width="1.5"/><polygon points="157.83 606.56 173.93 606.56 203.28 347.11 188.13 347.11 157.83 606.56" fill="#fff" stroke="#06060f" stroke-miterlimit="10" stroke-width="1.5"/><rect x="159.72" y="324.38" width="438.38" height="25.57" fill="#fff" stroke="#06060f" stroke-miterlimit="10" stroke-width="1.5"/><path d="m513.02,283.51h-252.15c-2.56,0-4.64-2.08-4.64-4.64V109.48c0-2.56,2.08-4.64,4.64-4.64h252.15c2.56,0,4.64,2.08,4.64,4.64v169.39c0,2.56-2.08,4.64-4.64,4.64Z" fill="#fff" stroke="#06060f" stroke-miterlimit="10" stroke-width="1.5"/><rect x="355.71" y="283.74" width="61.93" height="40.6" fill="#fff" stroke="#06060f" stroke-miterlimit="10" stroke-width="1.5"/><line x1="256.5" y1="256.77" x2="517.39" y2="256.77" fill="#fff" stroke="#06060f" stroke-miterlimit="10" stroke-width="1.5"/><polygon points="107.56 606.6 119.73 606.6 141.94 405.34 130.48 405.34 107.56 606.6" fill="#fff" stroke="#06060f" stroke-miterlimit="10" stroke-width="1.5"/><polygon points="261.56 606.6 249.38 606.6 227.18 405.34 238.64 405.34 261.56 606.6" fill="#fff" stroke="#06060f" stroke-miterlimit="10" stroke-width="1.5"/><rect x="108.99" y="388.15" width="151.14" height="19.34" transform="translate(369.12 795.64) rotate(-180)" fill="#fff" stroke="#06060f" stroke-miterlimit="10" stroke-width="1.5"/><rect x="337.48" y="568.38" width="20.1" height="20.1" transform="translate(695.05 1156.86) rotate(-180)" fill="#ffb6b6" stroke="#06060f" stroke-miterlimit="10" stroke-width="1.5"/><path d="m333.41,604.16c-1.72-1.39-2.65-2.95-2.76-4.62-.13-1.91.83-3.97,2.85-6.1.05-.61.67-8.23,2.07-9.59-.12-.41-.83-3.11.34-4.86.55-.83,1.43-1.31,2.63-1.43h.05s.03.04.03.04c.03.06,3.42,5.95,8.53,6.47,2.92.3,5.85-1.21,8.7-4.47.1-.24.91-4.22,1.43-6.85l.02-.11,27.79,14.61,16.25,4.5c2.04.57,3.47,2.44,3.47,4.56,0,1.81-1.05,3.48-2.68,4.26l-7.88,3.79c-3.29,1.58-6.96,2.42-10.61,2.42h-42.72c-2.77,0-5.43-.92-7.5-2.6Z" fill="#06060f" stroke="#06060f" stroke-miterlimit="10" stroke-width="1.5"/><path d="m137.16,345.64c0,10.05,2.82,19.93,8.19,28.5.54.87,1.11,1.73,1.71,2.57,6.3,8.87,15.14,15.62,25.37,19.35l69.25,25.27,28.32,10.33,6.96,2.54,27.77,10.13,4.93,22.64.61,2.8,9.74,44.69,13.07,60.01,28.65.86-9-156-22.41-12.32-31.84-17.52-61.88-34.03-3.87-2.13.14-2.65,1.86-36.35-18.71.4-11.01.23-24.75.53-31.23.71-1,20c-.34,2.47-10.87,6.97-10.87,9.44Z" fill="#06060f" stroke="#06060f" stroke-miterlimit="10" stroke-width="1.5"/><rect x="292.71" y="565.04" width="20.1" height="20.1" transform="translate(543.63 1178.71) rotate(-173.99)" fill="#ffb6b6" stroke="#06060f" stroke-miterlimit="10" stroke-width="1.5"/><path d="m283.77,594.32c-.06,1.67.7,3.31,2.26,4.88,1.88,1.88,4.43,3.08,7.19,3.37l42.48,4.47c3.63.38,7.37-.07,10.8-1.29l8.23-2.94c1.7-.61,2.93-2.17,3.11-3.96.23-2.11-1-4.12-2.97-4.9l-15.68-6.17-21.96-14.66-3.88-2.59-.28-.19-.03.1c-.23.72-.48,1.55-.74,2.38-.65,2.08-1.3,4.12-1.39,4.28-3.18,2.95-6.25,4.14-9.13,3.54-5.02-1.05-7.77-7.26-7.8-7.32l-.02-.05h-.05c-.38,0-.74.04-1.07.12-.7.16-1.27.51-1.7,1.03-1.34,1.62-.91,4.38-.84,4.8-1.53,1.21-2.95,8.72-3.06,9.33-2.23,1.91-3.4,3.85-3.47,5.77Z" fill="#06060f" stroke="#06060f" stroke-miterlimit="10" stroke-width="1.5"/><path d="m137.16,345.64c2.89,9.63,2.82,19.93,8.19,28.5.78.44,1.57.85,2.37,1.24l93.31,45.63.65.32,6.01,2.93,26.55,12.98,2.53,23.03.32,2.85,11.72,106.52,4.36.59,19.13,2.59.79.11,4.12.56.02-.37,2.78-58.66,4.59-97.05-21-14.6-29.83-20.76-57.98-40.32-3.62-2.53.41-2.62,3.44-21.85-11.01.23-24.75.53-31.23.71-7,7c-.34,2.47-5,22-4.87,22.44Z" fill="#06060f" stroke="#06060f" stroke-miterlimit="10" stroke-width="1.5"/><polygon points="205.01 314.96 232.87 350.68 234.73 314.33 205.01 314.96" fill="#06060f" stroke="#06060f" stroke-miterlimit="10" stroke-width="1.5"/><path d="m173.16,142.66c0-18.04,14.63-32.67,32.67-32.67s32.67,14.63,32.67,32.67c0,14.63-9.62,27.02-22.88,31.18l-6.32,41.74-32.2-26.83s6.96-8.86,10.69-18.85c-8.82-5.85-14.63-15.86-14.63-27.24Z" fill="#ffb6b6" stroke="#06060f" stroke-miterlimit="10" stroke-width="1.5"/><path d="m188.7,170.89s-6.23-31.52,2.77-27.77c9,3.75,6.59,10.09,6.59,10.09h0l8.63-12.76v-14.63s5.63-6.38,5.63-6.38l24.01,10.13s12.76-37.52-23.63-25.51c0,0-31.14-12.76-40.14,9.38-21.35,49.86,16.14,57.44,16.14,57.44Z" fill="#06060f" stroke="#06060f" stroke-miterlimit="10" stroke-width="1.5"/><path d="m144.56,326.09l85.38.38c7.11.36,12.97-3.87,12.3-8.86l-16.18-119.9-28.93-15.16c-6.1-3.2-13.58-2.02-18.4,2.91l-17.15,17.53c-4.5,4.6-7.39,9.88-8.43,15.42l-8,79.38c-.53,2.78-.07,5.61,1.31,8.25l3.14,5.95c3.33,6.31-14.57,13.63-5.03,14.11Z" fill="#fff" stroke="#06060f" stroke-miterlimit="10" stroke-width="1.5"/><path d="m228.81,202.27h0c1.37-1.93,1.06-4.24-.8-5.96l-13.61-12.53c-5.76-5.31-15.17-7.98-24.55-6.99l-33.61,3.57c-9.45,1-15.19,7.87-11.87,14.17l1.68,3.18-2.27,4.33c-3.33,6.34.72,13.42,9.36,16.37h0s26.91-36.89,41.91-27.74c8,4.88,15.72,9.77,21.18,13.26,3.94,2.52,10.2,1.69,12.58-1.66Z" fill="#63FF6A" stroke="#06060f" stroke-miterlimit="10" stroke-width="1.5"/><path d="m289.37,313.39l-31.06-6.17,3.6-18.14,31.06,6.17c3.87-2.68,9.22-3.82,14.75-2.72,9.68,1.92,16.24,9.98,14.65,17.99-1.59,8.01-10.73,12.95-20.41,11.03-5.53-1.1-10.04-4.21-12.59-8.16Z" fill="#ffb6b6" stroke="#06060f" stroke-miterlimit="10" stroke-width="1.5"/><polyline points="177.15 249.35 209.63 307.23 272.48 318.1 286.14 286.56 226.53 279.94 204.63 204.98" fill="#fff" stroke="#06060f" stroke-miterlimit="10" stroke-width="1.5"/><path d="m431.74,198.01h-36.28c-1.8,0-3.26-1.46-3.26-3.26v-10.71c0-1.8,1.46-3.26,3.26-3.26h36.28c1.8,0,3.26,1.46,3.26,3.26v10.71c0,1.8-1.46,3.26-3.26,3.26Z" fill="#63FF6A" stroke="#06060f" stroke-miterlimit="10" stroke-width="1.5"/><path d="m376.83,198.01h-36.28c-1.8,0-3.26-1.46-3.26-3.26v-10.71c0-1.8,1.46-3.26,3.26-3.26h36.28c1.8,0,3.26,1.46,3.26,3.26v10.71c0,1.8-1.46,3.26-3.26,3.26Z" fill="#fff" stroke="#06060f" stroke-miterlimit="10" stroke-width="1.5"/><polygon points="719.33 182.53 735.06 228.88 646.06 227.88 659.33 185.53 719.33 182.53" fill="#ffb6b6" stroke="#06060f" stroke-miterlimit="10" stroke-width="1.5"/><rect x="664.17" y="568.72" width="20.1" height="20.1" fill="#ffb6b6" stroke="#06060f" stroke-miterlimit="10" stroke-width="1.5"/><path d="m680.83,607.1h-42.72c-3.65,0-7.32-.84-10.61-2.42l-7.88-3.79c-1.63-.78-2.68-2.46-2.68-4.26,0-2.12,1.43-3.99,3.47-4.56l16.25-4.5,27.79-14.61.02.11c.52,2.63,1.33,6.61,1.43,6.85,2.85,3.27,5.78,4.77,8.7,4.47,5.1-.52,8.49-6.41,8.53-6.47l.03-.05h.05c1.19.13,2.08.61,2.63,1.44,1.16,1.75.45,4.46.34,4.86,1.39,1.36,2.02,8.98,2.07,9.59,2.02,2.14,2.97,4.19,2.85,6.1-.11,1.67-1.04,3.23-2.76,4.62-2.07,1.67-4.73,2.6-7.5,2.6Z" fill="#06060f" stroke="#06060f" stroke-miterlimit="10" stroke-width="1.5"/><rect x="786.79" y="539.59" width="20.1" height="20.1" transform="translate(-121.14 856.84) rotate(-53.1)" fill="#ffb6b6" stroke="#06060f" stroke-miterlimit="10" stroke-width="1.5"/><path d="m823.47,561.35l-25.65,34.16c-2.19,2.92-5.06,5.35-8.3,7.03l-7.76,4.02c-1.6.83-3.57.67-5.02-.42-1.69-1.27-2.34-3.54-1.56-5.51l6.16-15.69,5.01-31,.1.05c2.42,1.16,6.08,2.91,6.34,2.97,4.32-.32,7.28-1.76,8.8-4.27,2.65-4.39-.03-10.64-.05-10.7l-.02-.05.04-.04c.82-.88,1.73-1.3,2.72-1.24,2.1.12,3.84,2.31,4.09,2.65,1.93-.3,8.39,3.78,8.91,4.11,2.92-.33,5.13.14,6.59,1.39,1.27,1.09,1.96,2.77,2.04,4.98.1,2.66-.76,5.34-2.43,7.56Z" fill="#06060f" stroke="#06060f" stroke-miterlimit="10" stroke-width="1.5"/><polygon points="739.06 223.71 642.74 223.13 657.99 572.74 690.9 572.74 739.06 223.71" fill="#06060f" stroke="#06060f" stroke-miterlimit="10" stroke-width="1.5"/><polygon points="800.84 529.13 788.17 559.13 674.85 456.04 706.96 397.94 800.84 529.13" fill="#06060f" stroke="#06060f" stroke-miterlimit="10" stroke-width="1.5"/><path d="m707.69,38.68c0-18.04-14.63-32.67-32.67-32.67s-32.67,14.63-32.67,32.67c0,14.63,9.62,27.02,22.88,31.18l6.32,41.74,32.2-26.83s-6.96-8.86-10.69-18.85c8.82-5.85,14.63-15.86,14.63-27.24Z" fill="#ffb6b6" stroke="#06060f" stroke-miterlimit="10" stroke-width="1.5"/><path d="m706.81,70.93l-38.48,24.6-17.76,31.37c-5.14,9.08-6.88,19.7-4.9,29.95l8.16,42.22h85.09l-13.44-88.08c-1.72-11.24-6-21.94-12.51-31.26l-6.15-8.79Z" fill="#63FF6A" stroke="#06060f" stroke-miterlimit="10" stroke-width="1.5"/><path d="m718.18,81.61s-1.53,11.58-15.66,11.95q-28.67.77-28.67.77s24.24-58.99,14.27-52.34c-9.97,6.65-36.54-21.21-36.54-21.21l-7.84,14.71s-18.74-6.78,2.03-23.4c0,0,24.77-19.15,51.07-7.65,26.3,11.5,21.34,77.18,21.34,77.18Z" fill="#06060f" stroke="#06060f" stroke-miterlimit="10" stroke-width="1.5"/><path d="m700.23,291.21l.69-31.66-18.49-.4-.69,31.66c-3.45,3.2-5.73,8.18-5.85,13.82-.21,9.87,6.23,18.01,14.4,18.19,8.17.18,14.96-7.68,15.18-17.55.12-5.64-1.94-10.71-5.24-14.06Z" fill="#ffb6b6" stroke="#06060f" stroke-miterlimit="10" stroke-width="1.5"/><polyline points="674.71 132.74 674.71 286.21 706.81 286.21 716.3 134.03" fill="#63FF6A" stroke="#06060f" stroke-miterlimit="10" stroke-width="1.5"/><path d="m491.25,606.79c-.97-11.97-5.96-23.37-14.11-32.18-.66-.71-1.72.35-1.06,1.06,7.87,8.51,12.74,19.57,13.68,31.12.08.96,1.58.96,1.5,0h0Z" fill="#06060f" stroke-width="0"/><path d="m480.29,574.47s14.44-12.63,3.03-21.61c-1.76-1.39-4.33-1.25-5.92.34-1.39,1.39-2.91,3.87-4.11,8.27,0,0-8-6-12-2s1,12,1,12c0,0-7-1-7,2,0,1,.44,2,1.04,2.89,1.4,2.1,3.64,3.48,6.12,3.95,4.36.82,12.3,1.09,17.84-5.84Z" fill="#63ffae" stroke="#06060f" stroke-miterlimit="10" stroke-width="1.5"/></svg>