<svg xmlns="http://www.w3.org/2000/svg" width="828.56287" height="584.9418" viewBox="0 0 828.56287 584.9418" xmlns:xlink="http://www.w3.org/1999/xlink" role="img" artist="Katerina Limpitsouni"><line y1="584.08589" x2="828.56287" y2="584.08589" fill="none" stroke="#06060f" stroke-miterlimit="10" stroke-width="1.5"/><path d="m755.9594,475.58522H85.8697c-6.80553,0-12.34227-5.53674-12.34227-12.34227V13.09227c0-6.80553,5.53674-12.34227,12.34227-12.34227h670.0897c6.80553,0,12.34227,5.53674,12.34227,12.34227v450.15068c0,6.80553-5.53674,12.34227-12.34227,12.34227Z" fill="#fff" stroke="#06060f" stroke-miterlimit="10" stroke-width="1.5"/><rect x="337.89122" y="476.21297" width="164.59012" height="107.8852" fill="#fff" stroke="#06060f" stroke-miterlimit="10" stroke-width="1.5"/><line x1="74.25571" y1="404.53861" x2="767.57339" y2="404.53861" fill="none" stroke="#06060f" stroke-miterlimit="10" stroke-width="1.5"/><path d="m781.05754,169.40972c0-13.52448-10.96378-24.48826-24.48835-24.48826s-24.48835,10.96378-24.48835,24.48826c0,10.9684,7.21171,20.25131,17.15147,23.36889l4.73418,31.28613,24.13353-20.11113s-5.21381-6.64069-8.00956-14.12858c6.6082-4.38554,10.96707-11.88999,10.96707-20.41531Z" fill="#ffb5b5" stroke="#06060f" stroke-miterlimit="10" stroke-width="1.5"/><path d="m769.41148,190.57091s4.66925-23.62406-2.07934-20.81215-4.94276,7.56546-4.94276,7.56546h0l-6.4674-9.56051v-10.96646l-4.21787-4.78025-17.99625,7.59217s-9.56051-28.11913,17.71505-19.12101c0,0,23.33888-9.56051,30.08747,7.02978,15.99962,37.37274-12.09891,43.05297-12.09891,43.05297Z" fill="#06060f" stroke="#06060f" stroke-miterlimit="10" stroke-width="1.5"/><polygon points="808.19935 532.72056 795.30498 546.25993 781.56277 533.55588 794.45714 520.01651 808.19935 532.72056" fill="#ffb5b5" stroke="#06060f" stroke-miterlimit="10" stroke-width="1.5"/><path d="m818.49893,546.58754l-27.40895,28.78001c-2.34268,2.45986-5.26865,4.40336-8.46167,5.62038l-7.64158,2.91265c-1.57998.60224-3.39919.25339-4.63459-.88868-1.44882-1.33937-1.8155-3.48509-.8917-5.21804l7.35029-13.7879,7.84351-27.96131.08532.05254c2.1337,1.31396,5.37003,3.28552,5.60073,3.36899,4.06169.14384,6.96934-.87769,8.64308-3.03545,2.91938-3.76367,1.06725-9.77206,1.04819-9.83235l-.01455-.04612.03703-.0317c.85097-.72662,1.74734-1.01736,2.66426-.86419,1.94649.32524,3.33886,2.51173,3.54262,2.84811,1.8266-.07695,7.43489,4.31536,7.8862,4.6713,2.75343-.00739,4.77194.64549,5.99917,1.94079,1.07298,1.1324,1.54015,2.7398,1.38877,4.77756-.18207,2.45171-1.26033,4.82881-3.03613,6.69344Z" fill="#06060f" stroke="#06060f" stroke-miterlimit="10" stroke-width="1.5"/><rect x="774.46859" y="548.30887" width="18.84445" height="18.5663" fill="#ffb5b5" stroke="#06060f" stroke-miterlimit="10" stroke-width="1.5"/><path d="m790.09664,583.76375h-40.05675c-3.4237,0-6.86432-.77241-9.94996-2.23378l-7.38462-3.49734c-1.52686-.7231-2.51346-2.26887-2.51346-3.93794,0-1.95742,1.3373-3.68909,3.25208-4.21113l15.23485-4.15337,26.06306-13.4972.01949.09725c.48744,2.4321,1.24262,6.10639,1.33869,6.32926,2.67276,3.01667,5.41843,4.40678,8.1608,4.13287,4.78334-.47779,7.96325-5.91977,7.99483-5.97471l.02418-.04202.0488.00491c1.1201.11421,1.94864.55929,2.46268,1.3229,1.09116,1.62107.42552,4.11757.31597,4.49413,1.30681,1.25973,1.89325,8.29462,1.9386,8.86243,1.88951,1.97323,2.78744,3.87023,2.66844,5.63828-.10398,1.54577-.97406,2.98129-2.58593,4.26686-1.93926,1.54678-4.43653,2.3986-7.03176,2.3986Z" fill="#06060f" stroke="#06060f" stroke-miterlimit="10" stroke-width="1.5"/><polygon points="795.5502 314.47911 728.77514 314.51163 706.51679 453.36794 773.29184 532.73298 795.5502 512.89172 742.7789 453.36794 795.5502 314.47911" fill="#06060f" stroke="#06060f" stroke-miterlimit="10" stroke-width="1.5"/><polygon points="756.0822 334.94786 795.5502 314.47911 795.5502 552.57424 773.29184 553.18546 756.0822 334.94786" fill="#06060f" stroke="#06060f" stroke-miterlimit="10" stroke-width="1.5"/><path d="m716.54827,370.16167l.47021-21.67424-12.65487-.27454-.47021,21.67424c-2.36108,2.19183-3.91968,5.5975-4.00345,9.45874-.14657,6.75616,4.26721,12.33137,9.8585,12.45267,5.59129.1213,10.24271-5.25724,10.38928-12.01341.08377-3.86124-1.32577-7.3313-3.58947-9.62346Z" fill="#ffb5b5" stroke="#06060f" stroke-miterlimit="10" stroke-width="1.5"/><path d="m744.28818,209.05841h-.00003c-17.6411,3.44712-30.88255,18.13557-32.48819,36.03844l-10.98071,122.43488h19.26936l24.19957-158.47332Z" fill="#fff" stroke="#06060f" stroke-miterlimit="10" stroke-width="1.5"/><polyline points="726.06814 306.60678 723.06713 341.17656 804.52858 317.21731 794.60261 292.23123 813.08546 249.78913 775.35574 195.70968 745.23554 197.76333 733.59819 212.82343" fill="#fff" stroke="#06060f" stroke-miterlimit="10" stroke-width="1.5"/><rect x="701.66828" y="284.65797" width="72.24369" height="72.24369" rx="2" ry="2" transform="translate(-64.91195 266.89714) rotate(-19.65835)" fill="#63FF6A" stroke="#06060f" stroke-miterlimit="10" stroke-width="1.5"/><path d="m792.49962,339.43726l11.36196-18.46347-10.7802-6.63387-11.36196,18.46347c-3.14517.69766-6.21153,2.8483-8.23565,6.13754-3.54168,5.75532-2.55159,12.79692,2.21142,15.72796,4.76301,2.93104,11.49522.64155,15.0369-5.11377,2.02412-3.28924,2.56203-6.99583,1.76753-10.11786Z" fill="#ffb5b5" stroke="#06060f" stroke-miterlimit="10" stroke-width="1.5"/><path d="m769.19479,196.39423l6.56848-.27248,11.22985,8.48709c13.3068,2.26923,17.16587,2.90545,21.243,11.69528,1.71322,3.69351,2.84897,7.62829,3.48398,11.64997l9.5005,60.16984-23.87978,57.5022-15.82411-17.7983,16.91619-44.95663-2.81017-10.75363" fill="#fff" stroke="#06060f" stroke-miterlimit="10" stroke-width="1.5"/><rect x="145.56287" y="72.01247" width="77.02595" height="77.02595" rx="2" ry="2" fill="#fff" stroke="#06060f" stroke-miterlimit="10" stroke-width="1.5"/><rect x="579.93284" y="194.69712" width="77.02595" height="77.02595" rx="2" ry="2" fill="#fff" stroke="#06060f" stroke-miterlimit="10" stroke-width="1.5"/><rect x="420.77438" y="81.95987" width="77.02595" height="77.02595" rx="2" ry="2" fill="#fff" stroke="#06060f" stroke-miterlimit="10" stroke-width="1.5"/><rect x="281.51072" y="174.80231" width="77.02595" height="77.02595" rx="2" ry="2" transform="translate(46.97844 -57.5442) rotate(11.08388)" fill="#63FF6A" stroke="#06060f" stroke-miterlimit="10" stroke-width="1.5"/><rect x="434.03758" y="261.01315" width="77.02595" height="77.02595" rx="2" ry="2" fill="#ff6363" stroke="#06060f" stroke-miterlimit="10" stroke-width="1.5"/><path d="m146.59223,583.75h-41.52785c-1.53456-1.54129-2.76763-3.11524-3.70543-4.47271-2.00691-2.90549-2.87907-6.49948-2.2101-9.96217.28853-1.47564.83277-2.90549,1.81653-3.90238,2.95785-2.99067,8.94575,4.90567,8.94575,4.90567,0,0,2.89876-12.90033,10.82793-12.94644,7.92901-.04579,9.98843,13.81876,9.98843,13.81876,5.53525-3.20715,9.48999-4.17778,12.25105-4.19091,3.14806-.01953,5.83707,2.36749,6.23048,5.48946.61645,4.95147-.53127,8.58485-2.6168,11.26073Z" fill="#63ffad" stroke="#06060f" stroke-miterlimit="10" stroke-width="1.5"/></svg>